# xmcd
# 
# Track frame offsets:
#     150
#     25340
#     41440
#     60227
#     86202
# 
# Disc length: 1320
# 
# Revision: 0
# Processed by: cddbd v1.5.2PL0 Copyright (c) Steve Scherf et al.
# Submitted via: BonkEnc v1.0.15
# 
DISCID=35052605
DTITLE=Madonna - Evita 5 Track Sampler 
DYEAR=1996
DGENRE=Pop
TTITLE0=Don't Cry For Me Argentina
TTITLE1=Another Suitcase In Another Hall
TTITLE2=Buenos Aires
TTITLE3=Oh What A Circus
TTITLE4=You Must Love Me
EXTD=
EXTT0=
EXTT1=
EXTT2=
EXTT3=
EXTT4=
PLAYORDER=
